<svg xmlns="http://www.w3.org/2000/svg" width="114" height="19">
    <text font-family="Montserrat" fill="#99DD6E" font-size="14" x="17" y="13">oncepotCube</text>
    <path fill-rule="evenodd" fill="#99DD6E" d="M6.694 9.569a2.56 2.56 0 0 1 2.554-2.564 2.559 2.559 0 0 1 2.554 2.564 2.559 2.559 0 0 1-2.554 2.564 2.56 2.56 0 0 1-2.554-2.564zm6.327-3.829a.287.287 0 0 1-.404.021 5.048 5.048 0 0 0-3.641-1.278c-2.599.136-4.699 2.276-4.797 4.888-.11 2.903 2.202 5.291 5.069 5.291a5.046 5.046 0 0 0 3.37-1.285.285.285 0 0 1 .403.021l2.179 2.428a.29.29 0 0 1-.023.41 8.85 8.85 0 0 1-5.929 2.27c-4.958 0-8.971-4.07-8.901-9.064C.415 4.55 4.565.532 9.438.634a8.85 8.85 0 0 1 5.738 2.267.291.291 0 0 1 .024.411L13.021 5.74z"/>
    <path fill-rule="evenodd" fill="#FFF" d="M11.802 9.569a2.559 2.559 0 0 1-2.554 2.564 2.56 2.56 0 0 1-2.554-2.564 2.56 2.56 0 0 1 2.554-2.564 2.559 2.559 0 0 1 2.554 2.564"/>
</svg>
